<?xml version="1.0" encoding="UTF-8" standalone="no" ?>
<!DOCTYPE svg PUBLIC "-//W3C//DTD SVG 1.1//EN" "http://www.w3.org/Graphics/SVG/1.1/DTD/svg11.dtd">
<svg xmlns="http://www.w3.org/2000/svg" xmlns:xlink="http://www.w3.org/1999/xlink" version="1.1" width="500" height="500" viewBox="0 0 500 500" xml:space="preserve">
<desc>Created with Fabric.js 3.6.3</desc>
<defs>
</defs>
<g transform="matrix(1 0 0 1 250 250)"  >
<rect style="stroke: none; stroke-width: 1; stroke-dasharray: none; stroke-linecap: butt; stroke-dashoffset: 0; stroke-linejoin: miter; stroke-miterlimit: 4; fill: rgb(88,143,39); fill-rule: nonzero; opacity: 1;"  x="-250" y="-250" rx="0" ry="0" width="500" height="500" />
</g>
<g transform="matrix(1 0 0 1 249.999999972507 244)" style=""  ><path fill="#ffffff" opacity="1" d="M-139.09-43.51Q-138.40-51.02-138.40-62.92L-138.40-62.92Q-138.40-76.78-140.13-93.19L-140.13-93.19Q-120.50-92.50-73.36-92.50L-73.36-92.50Q-26.57-92.50-6.93-93.19L-6.93-93.19Q-8.55-76.32-8.55-62.92L-8.55-62.92Q-8.55-51.02-7.86-43.51L-7.86-43.51L-13.29-43.51Q-15.13-61.88-17.96-70.72Q-20.79-79.56-27.90-83.66Q-35.00-87.76-49.68-87.76L-49.68-87.76L-62.50-87.76L-62.50 46.83Q-62.50 56.65-60.65 61.21Q-58.80 65.78-53.95 67.51Q-49.10 69.24-38.59 69.59L-38.59 69.59L-38.59 74.33Q-51.06 73.63-73.36 73.63L-73.36 73.63Q-97.04 73.63-108.36 74.33L-108.36 74.33L-108.36 69.59Q-97.85 69.24-93.00 67.51Q-88.15 65.78-86.30 61.21Q-84.45 56.65-84.45 46.83L-84.45 46.83L-84.45-87.76L-97.27-87.76Q-111.95-87.76-119.05-83.66Q-126.16-79.56-128.99-70.72Q-131.82-61.88-133.67-43.51L-133.67-43.51L-139.09-43.51Z"/><path fill="#ffffff" opacity="1" d="M7.86-43.51Q8.55-51.02 8.55-62.92L8.55-62.92Q8.55-76.78 6.82-93.19L6.82-93.19Q26.46-92.50 73.59-92.50L73.59-92.50Q120.38-92.50 140.02-93.19L140.02-93.19Q138.40-76.32 138.40-62.92L138.40-62.92Q138.40-51.02 139.09-43.51L139.09-43.51L133.67-43.51Q131.82-61.88 128.99-70.72Q126.16-79.56 119.05-83.66Q111.95-87.76 97.27-87.76L97.27-87.76L84.45-87.76L84.45 46.83Q84.45 56.65 86.30 61.21Q88.15 65.78 93.00 67.51Q97.85 69.24 108.36 69.59L108.36 69.59L108.36 74.33Q95.89 73.63 73.59 73.63L73.59 73.63Q49.91 73.63 38.59 74.33L38.59 74.33L38.59 69.59Q49.10 69.24 53.95 67.51Q58.80 65.78 60.65 61.21Q62.50 56.65 62.50 46.83L62.50 46.83L62.50-87.76L49.68-87.76Q35.00-87.76 27.90-83.66Q20.79-79.56 17.96-70.72Q15.13-61.88 13.29-43.51L13.29-43.51L7.86-43.51Z"/></g><g transform="matrix(0.4695431472081219 0 0 0.0592033383728436 250.00000000000003 238.32611531890038)"  >
<rect style="stroke: none; stroke-width: 1; stroke-dasharray: none; stroke-linecap: butt; stroke-dashoffset: 0; stroke-linejoin: miter; stroke-miterlimit: 4; fill: rgb(88,143,39); fill-rule: evenodd; opacity: 1;"  x="-393.5" y="-393.5" rx="0" ry="0" width="787" height="787" />
</g>
<g transform="matrix(1 0 0 1 250.25 238.54651364971394)" style=""  ><path fill="#ffffff" opacity="1" d="M-68.16-8.21C-66.87-8.21-66.64-8.49-66.64-8.84C-66.64-9.11-66.72-9.56-66.97-9.91C-67.27-9.66-67.89-9.61-68.89-9.61L-77.70-9.61C-78.87-9.61-80.12-9.56-81.16-9.43C-81.16-8.91-81.04-8.36-80.91-8.04C-79.52-8.19-78.57-8.21-77.33-8.21L-75.14-8.21C-75.06-7.39-75.06-6.72-75.06-5.87L-75.06 6.38C-75.06 7.70-74.59 7.92-74.07 7.92C-73.59 7.92-72.84 7.82-72.30 7.57C-72.65 7.27-72.72 6.68-72.72 5.68L-72.72-6.25C-72.72-6.92-72.75-7.57-72.77-8.21Z"/><path fill="#ffffff" opacity="1" d="M-48.52 6.38C-47.99 7.70-47.42 7.92-46.87 7.92C-46.38 7.92-45.60 7.82-45.16 7.57C-45.60 7.27-45.90 6.70-46.30 5.68L-51.01-6.25C-51.48-7.42-51.98-8.64-52.50-9.68C-53.52-9.68-54.49-9.56-54.89-9.46C-55.24-8.09-55.66-6.84-56.06-5.87L-60.89 6.38C-61.09 6.93-61.17 7.27-61.17 7.50C-61.17 7.82-60.94 7.92-60.67 7.92C-60.27 7.92-59.62 7.82-59.08 7.57C-59.08 7.17-58.93 6.58-58.58 5.68L-57.46 2.72L-49.96 2.72ZM-53.32-5.87L-50.51 1.32L-56.91 1.32L-53.75-6.92C-53.60-6.60-53.47-6.25-53.32-5.87Z"/><path fill="#ffffff" opacity="1" d="M-27.98 6.35C-26.90 7.70-26.13 7.95-25.44 7.95C-24.96 7.95-24.22 7.87-23.82 7.60C-24.39 7.27-24.94 6.78-25.98 5.63L-32.41-1.32L-27.65-6.35C-26.61-7.49-25.68-8.69-24.94-9.71C-25.91-9.71-26.73-9.66-27.25-9.58C-28.62-7.94-29.27-7.14-30.34-6.00L-34.65-1.49L-34.65-6.87C-34.65-7.79-34.75-8.76-34.95-9.71C-35.92-9.71-36.79-9.58-37.24-9.46C-37.04-8.04-36.99-7.17-36.99-5.92L-36.99 6.38C-36.99 7.70-36.54 7.92-36.02 7.92C-35.49 7.92-34.95 7.87-34.42 7.62C-34.60 7.32-34.65 6.68-34.65 5.68L-34.65-0.87Z"/><path fill="#ffffff" opacity="1" d="M-14.53 3.81C-15.72 3.81-16.50 4.16-16.50 4.98C-16.50 6.20-14.53 7.95-10.89 7.95C-6.98 7.95-4.74 6.05-4.74 3.22C-4.74-2.54-14.03-1.17-14.03-5.30C-14.03-6.97-12.54-8.31-10.57-8.31C-8.90-8.31-7.71-7.27-7.23-5.95C-5.99-5.95-5.27-6.15-5.27-6.89C-5.27-8.01-7.16-9.73-10.47-9.73C-14.18-9.73-16.27-7.74-16.27-5.15C-16.27 0.30-7.06-0.99-7.06 3.51C-7.06 5.43-8.70 6.53-10.77 6.53C-12.69 6.53-13.98 5.51-14.53 3.81Z"/><path fill="#ffffff" opacity="1" d=""/><path fill="#ffffff" opacity="1" d="M27.98-8.21C29.27-8.21 29.49-8.49 29.49-8.84C29.49-9.11 29.42-9.56 29.17-9.91C28.87-9.66 28.25-9.61 27.25-9.61L18.44-9.61C17.27-9.61 16.02-9.56 14.98-9.43C14.98-8.91 15.10-8.36 15.23-8.04C16.62-8.19 17.57-8.21 18.81-8.21L21.00-8.21C21.08-7.39 21.08-6.72 21.08-5.87L21.08 6.38C21.08 7.70 21.55 7.92 22.07 7.92C22.55 7.92 23.29 7.82 23.84 7.57C23.49 7.27 23.42 6.68 23.42 5.68L23.42-6.25C23.42-6.92 23.39-7.57 23.37-8.21Z"/><path fill="#ffffff" opacity="1" d="M36.34-0.69C36.34 4.44 39.50 7.95 44.16 7.95C49.04 7.95 52.35 4.26 52.35-1.09C52.35-6.22 49.19-9.73 44.51-9.73C39.65-9.73 36.34-6.05 36.34-0.69ZM38.86-0.94C38.86-5.33 41.05-8.31 44.28-8.31C47.57-8.31 49.84-5.28 49.84-0.84C49.84 3.54 47.65 6.53 44.38 6.53C41.10 6.53 38.86 3.49 38.86-0.94Z"/><path fill="#ffffff" opacity="1" d="M77.97 6.38C78.15 7.70 78.67 7.92 79.19 7.92C79.69 7.92 80.46 7.82 80.96 7.57C80.56 7.27 80.44 6.85 80.27 5.68L78.60-6.25C78.42-7.32 78.22-8.46 77.92-9.68C76.93-9.68 76.03-9.66 75.46-9.58C75.14-8.16 74.86-7.22 74.39-5.90L70.45 5.21L66.15-6.84C65.82-7.77 65.35-8.76 64.80-9.68C63.71-9.68 62.81-9.56 62.36-9.43C62.34-8.11 62.24-7.04 62.11-5.87C62.11-5.87 60.32 6.45 60.32 7.00C60.32 7.75 60.64 7.92 61.04 7.92C61.42 7.92 62.06 7.82 62.61 7.57C62.41 7.42 62.34 7.10 62.34 6.80C62.34 6.58 62.39 6.18 62.44 5.68L64.01-5.77L68.56 6.38C69.04 7.65 69.48 7.92 70.06 7.92C70.60 7.92 71.08 7.87 71.53 7.62C71.53 7.32 71.72 6.60 72.05 5.68L76.23-5.77Z"/></g></svg>